# xmcd
#
# Track frame offsets: 
#        150
#        19457
#        36337
#        50012
#        67817
#        87053
#        106817
#        121040
#        148457
#        162282
#        179310
#        190507
#        213363
#        229303
#
# Disc length: 3397 seconds
#
# Revision: 0
# Processed by: cddbd v1.5.2PL0 Copyright (c) Steve Scherf et al.
# Submitted via: ExactAudioCopy v0.99pb5
#
DISCID=bf0d430e
DTITLE=The Icemen - Midnight Run
DYEAR=1999
DGENRE=Blues
TTITLE0=Sweet Lorena
TTITLE1=Blow Wind Blow
TTITLE2=So You Say I Need A Woman
TTITLE3=Trouble In Mind
TTITLE4=New Directions
TTITLE5=Illustrated Man
TTITLE6=If You Love Me Like You Say
TTITLE7=Midnight Run
TTITLE8=Sleeping In The Ground
TTITLE9=Don't Get Frustrated
TTITLE10=Sugar Sweet
TTITLE11=I Ain't Got Nobody
TTITLE12=Stop Breakin' Down
TTITLE13=Live And Roll
EXTD=
EXTT0=
EXTT1=
EXTT2=
EXTT3=
EXTT4=
EXTT5=
EXTT6=
EXTT7=
EXTT8=
EXTT9=
EXTT10=
EXTT11=
EXTT12=
EXTT13=
PLAYORDER=
